<mxfile host="app.diagrams.net" agent="Mozilla/5.0 (Windows NT 10.0; Win64; x64) AppleWebKit/537.36 (KHTML, like Gecko) Chrome/128.0.0.0 Safari/537.36 OPR/114.0.0.0" version="24.8.3">
  <diagram name="Страница — 1" id="4avvfgQBeNey1XqUrBNu">
    <mxGraphModel dx="952" dy="515" grid="1" gridSize="10" guides="1" tooltips="1" connect="1" arrows="1" fold="1" page="1" pageScale="1" pageWidth="827" pageHeight="1169" math="0" shadow="0">
      <root>
        <mxCell id="0" />
        <mxCell id="1" parent="0" />
        <mxCell id="8ufT0c0mkVSBskOa-6xL-1" value="emloyees" style="swimlane;childLayout=stackLayout;horizontal=1;startSize=50;horizontalStack=0;rounded=1;fontSize=14;fontStyle=0;strokeWidth=2;resizeParent=0;resizeLast=1;shadow=0;dashed=0;align=center;arcSize=4;whiteSpace=wrap;html=1;labelBackgroundColor=none;fillColor=#5D7F99;strokeColor=#D0CEE2;fontColor=#1A1A1A;" vertex="1" parent="1">
          <mxGeometry x="70" y="70" width="260" height="210" as="geometry" />
        </mxCell>
        <mxCell id="8ufT0c0mkVSBskOa-6xL-2" value="emp_id INT PK&lt;br&gt;first_name VARCHAR(50) NOT NULL&lt;div&gt;last_name VARCHAR(50) NOT NULL&lt;/div&gt;&lt;div&gt;sex VARCHAR(1) NUT NULL&lt;/div&gt;&lt;div&gt;birthday DATE&lt;/div&gt;&lt;div&gt;superviser_id INT FK(employees.emp_id)&lt;/div&gt;&lt;div&gt;branch_id INT FK(branch.branch_id)&lt;/div&gt;&lt;div&gt;dep_id INT FK(departments.dep_id)&lt;/div&gt;" style="align=left;strokeColor=none;fillColor=none;spacingLeft=4;fontSize=12;verticalAlign=top;resizable=0;rotatable=0;part=1;html=1;labelBackgroundColor=none;fontColor=#1A1A1A;" vertex="1" parent="8ufT0c0mkVSBskOa-6xL-1">
          <mxGeometry y="50" width="260" height="160" as="geometry" />
        </mxCell>
        <mxCell id="8ufT0c0mkVSBskOa-6xL-3" value="branch" style="swimlane;childLayout=stackLayout;horizontal=1;startSize=50;horizontalStack=0;rounded=1;fontSize=14;fontStyle=0;strokeWidth=2;resizeParent=0;resizeLast=1;shadow=0;dashed=0;align=center;arcSize=4;whiteSpace=wrap;html=1;strokeColor=#D0CEE2;fontColor=#1A1A1A;fillColor=#5D7F99;labelBackgroundColor=none;" vertex="1" parent="1">
          <mxGeometry x="500" y="70" width="260" height="120" as="geometry" />
        </mxCell>
        <mxCell id="8ufT0c0mkVSBskOa-6xL-4" value="branch_id INT PK&lt;br&gt;superviser_id INT FK(employees.emp_id)&lt;div&gt;&lt;br/&gt;&lt;/div&gt;" style="align=left;strokeColor=none;fillColor=none;spacingLeft=4;fontSize=12;verticalAlign=top;resizable=0;rotatable=0;part=1;html=1;fontColor=#1A1A1A;labelBackgroundColor=none;" vertex="1" parent="8ufT0c0mkVSBskOa-6xL-3">
          <mxGeometry y="50" width="260" height="70" as="geometry" />
        </mxCell>
        <mxCell id="8ufT0c0mkVSBskOa-6xL-5" value="depatrments" style="swimlane;childLayout=stackLayout;horizontal=1;startSize=50;horizontalStack=0;rounded=1;fontSize=14;fontStyle=0;strokeWidth=2;resizeParent=0;resizeLast=1;shadow=0;dashed=0;align=center;arcSize=4;whiteSpace=wrap;html=1;strokeColor=#D0CEE2;fontColor=#1A1A1A;fillColor=#5D7F99;labelBackgroundColor=none;" vertex="1" parent="1">
          <mxGeometry x="70" y="300" width="260" height="160" as="geometry" />
        </mxCell>
        <mxCell id="8ufT0c0mkVSBskOa-6xL-6" value="dep_id INT PK&lt;div&gt;type VARCHAR(40)(contora,boiler_plants, TB)&lt;br&gt;superviser_id INT FK(employees.emp_id)&lt;br&gt;master_id INT FK(employees.emp_id)&lt;div&gt;address VARCHAR(50)&lt;/div&gt;&lt;div&gt;phone_number VARCHAR(15)&lt;/div&gt;&lt;/div&gt;" style="align=left;strokeColor=none;fillColor=none;spacingLeft=4;fontSize=12;verticalAlign=top;resizable=0;rotatable=0;part=1;html=1;fontColor=#1A1A1A;labelBackgroundColor=none;" vertex="1" parent="8ufT0c0mkVSBskOa-6xL-5">
          <mxGeometry y="50" width="260" height="110" as="geometry" />
        </mxCell>
      </root>
    </mxGraphModel>
  </diagram>
</mxfile>
